<svg viewBox="0 0 1080 1080" fill="none" xmlns="http://www.w3.org/2000/svg">      <defs>  <filter id="filter" x="-20%" y="-20%" width="140%" height="140%" filterUnits="objectBoundingBox" primitiveUnits="userSpaceOnUse" color-interpolation-filters="linearRGB">    <feMorphology operator="dilate" radius="20 20" in="SourceAlpha" result="morphology"/>    <feFlood flood-color="#ffffff" flood-opacity="1" result="flood"/>    <feComposite in="flood" in2="morphology" operator="in" result="composite"/>    <feMerge result="merge">          <feMergeNode in="composite" result="mergeNode"/>      <feMergeNode in="SourceGraphic" result="mergeNode1"/>      </feMerge>  </filter></defs>      <g id="notion-avatar" filter="url(#filter)">        <g id="notion-avatar-face" fill="#ffffff">      <!--?xml version="1.0" encoding="UTF-8"?-->    <title>Face/ 8</title>    <g id="Face/-8" stroke="none" stroke-width="1" fill-rule="evenodd" stroke-linecap="round" stroke-linejoin="round">        <path d="M532,379 C664.54834,379 772,486.45166 772,619 C772,751.54834 724.54834,899 592,899 C492.560218,899 373.476049,816.010833 320.189513,718.584987 C317.498129,718.859681 314.765451,719 312,719 C267.81722,719 232,683.18278 232,639 C232,599.134956 261.158843,566.080325 299.312086,560.00055 C325.599297,455.979213 419.809919,379 532,379 Z M295.858895,624.545187 L304.141105,655.454813" id="Path" stroke="#000000" stroke-width="24"/>    </g>    </g><g id="notion-avatar-nose">      <g id="Nose/ 13"><path id="Path" fill-rule="evenodd" clip-rule="evenodd" d="M644 560C644 560 665.892 613.522 673 623C676 627 693.906 641.256 692.774 653.58C690.065 683.076 644 684.359 644 684.359C644 684.359 700 689.489 700 653.58C700 637.222 687 632 674 620C666.959 613.5 644 560 644 560Z" fill="black" stroke="black" stroke-width="6" stroke-linecap="round" stroke-linejoin="round"/></g>    </g><g id="notion-avatar-mouth">      <g id="Mouth/ 17"><g id="Group"><path id="Path" fill-rule="evenodd" clip-rule="evenodd" d="M696 748.043C696 748.043 652.693 751.692 624.619 750.391C596.544 749.09 544 741 544 741C544 741 567.514 813 621.26 813C650.652 813 664.489 801.44 679.204 779.348C685.215 770.324 696 748.043 696 748.043Z" stroke="black" stroke-width="12" stroke-linecap="round" stroke-linejoin="round"/><path id="Path_2" d="M708 745.444C708 745.444 660.212 753.222 622.485 750.111C584.758 747 542 740 542 740" stroke="black" stroke-width="12" stroke-linecap="round" stroke-linejoin="round"/><path id="Path_3" d="M537 745C537 745 539.438 740.385 542.688 738.077C545.938 735.769 550 735 550 735" stroke="black" stroke-width="12" stroke-linecap="round" stroke-linejoin="round"/><path id="Path_4" d="M569 788C569 788 588.349 777 625.365 777C662.381 777 675 786.429 675 786.429" stroke="black" stroke-width="12" stroke-linecap="round" stroke-linejoin="round"/></g></g>    </g><g id="notion-avatar-eyes">      <g id="Eyes/ 13"><g id="Group 1"><g id="Group"><path id="Path" fill-rule="evenodd" clip-rule="evenodd" d="M534 524.531C534 524.531 562.569 539.132 586.169 536.615C609.769 534.097 599.832 520 599.832 520C599.832 520 614.738 534.601 593.622 539.132C572.506 543.664 534 524.531 534 524.531Z" fill="black" stroke="black" stroke-width="6" stroke-linecap="round" stroke-linejoin="round"/><path id="Path_2" d="M540 529L536 537" stroke="black" stroke-width="4" stroke-linecap="round" stroke-linejoin="round"/><path id="Path_3" d="M554 534L551 543" stroke="black" stroke-width="4" stroke-linecap="round" stroke-linejoin="round"/><path id="Path_4" d="M568 537L566 547" stroke="black" stroke-width="4" stroke-linecap="round" stroke-linejoin="round"/><path id="Path_5" d="M582 539L581 549" stroke="black" stroke-width="4" stroke-linecap="round" stroke-linejoin="round"/><path id="Path_6" d="M594 538L596 547" stroke="black" stroke-width="4" stroke-linecap="round" stroke-linejoin="round"/><path id="Path_7" d="M604 534L608 540" stroke="black" stroke-width="4" stroke-linecap="round" stroke-linejoin="round"/></g><g id="Group_2"><path id="Path_8" fill-rule="evenodd" clip-rule="evenodd" d="M672 524.531C672 524.531 700.569 539.132 724.169 536.615C747.769 534.097 737.832 520 737.832 520C737.832 520 752.738 534.601 731.622 539.132C710.506 543.664 672 524.531 672 524.531Z" fill="black" stroke="black" stroke-width="6" stroke-linecap="round" stroke-linejoin="round"/><path id="Path_9" d="M678 529L674 537" stroke="black" stroke-width="4" stroke-linecap="round" stroke-linejoin="round"/><path id="Path_10" d="M692 534L689 543" stroke="black" stroke-width="4" stroke-linecap="round" stroke-linejoin="round"/><path id="Path_11" d="M706 537L704 547" stroke="black" stroke-width="4" stroke-linecap="round" stroke-linejoin="round"/><path id="Path_12" d="M720 539L719 549" stroke="black" stroke-width="4" stroke-linecap="round" stroke-linejoin="round"/><path id="Path_13" d="M732 538L734 547" stroke="black" stroke-width="4" stroke-linecap="round" stroke-linejoin="round"/><path id="Path_14" d="M742 534L746 540" stroke="black" stroke-width="4" stroke-linecap="round" stroke-linejoin="round"/></g></g></g>    </g><g id="notion-avatar-eyebrows">      <g id="Eyebrows/ 12"><g id="Group"><path id="Path" fill-rule="evenodd" clip-rule="evenodd" d="M681 505.316C681 505.316 698.641 492.863 706.392 490.578C714.144 488.294 738 489.316 738 489.316L755 494.913C755 494.913 730.25 494.897 716.549 497.08C702.848 499.263 681 505.316 681 505.316Z" fill="black" stroke="black" stroke-width="8" stroke-linecap="round" stroke-linejoin="round"/><path id="Path_2" fill-rule="evenodd" clip-rule="evenodd" d="M597 505.316C597 505.316 579.359 492.863 571.608 490.578C563.856 488.294 540 489.316 540 489.316L523 494.913C523 494.913 547.75 494.897 561.451 497.08C575.152 499.263 597 505.316 597 505.316Z" fill="black" stroke="black" stroke-width="8" stroke-linecap="round" stroke-linejoin="round"/></g></g>    </g><g id="notion-avatar-glasses">      <!--?xml version="1.0" encoding="UTF-8"?-->    <title>Glasses/ 8</title>    <g id="Glasses/-8" stroke="none" stroke-width="1" fill="none" fill-rule="evenodd" stroke-linecap="round" stroke-linejoin="round">        <g id="Group" transform="translate(293.000000, 475.000000)" stroke="#000000">            <path d="M328.31869,48.9411765 C333.965749,25.4117647 327.377514,0 252.083396,0 C176.789279,0 173.024573,30.1176471 170.201043,48.9411765 C167.377514,67.7647059 157.024573,140.235294 227.612808,143.058824 C298.201043,145.882353 322.671631,72.4705882 328.31869,48.9411765 Z" id="Path" stroke-width="8" fill="#0C0C0C"/>            <path d="M523.46091,48.9411765 C529.107969,25.4117647 522.519734,3.63797881e-12 447.225616,3.63797881e-12 C371.931498,3.63797881e-12 368.166792,30.1176471 365.343263,48.9411765 C362.519734,67.7647059 352.166792,140.235294 422.755028,143.058824 C493.343263,145.882353 517.813851,72.4705882 523.46091,48.9411765 Z" id="Path" stroke-width="8" fill="#0C0C0C" transform="translate(444.072807, 71.569037) scale(-1, 1) translate(-444.072807, -71.569037) "/>            <line x1="301.965749" y1="7.52941176" x2="391.377514" y2="7.52941176" id="Path" stroke-width="8"/>            <path d="M301.965749,35.7647059 C317.212807,34.5098039 332.271631,33.8823529 347.14222,33.8823529 C362.012808,33.8823529 376.757907,34.5098039 391.377514,35.7647059" id="Path" stroke-width="8"/>            <line x1="217" y1="40" x2="1.3111035" y2="83.3393577" id="Path" stroke-width="16" transform="translate(109.155552, 61.669679) rotate(1.361411) translate(-109.155552, -61.669679) "/>        </g>    </g>    </g><g id="notion-avatar-hair">      <g id="Hairstyle/ 36"><path id="Path" fill-rule="evenodd" clip-rule="evenodd" d="M539.999 312C671.999 328 752.424 414.219 744.999 431C738.933 444.707 738.933 459.707 744.999 476C727.499 489.392 675.365 429.548 603.549 403.064L601.751 404.165C596.113 407.606 591.005 410.616 586.427 413.198L584.999 414C569.805 422.476 559.864 426.483 555.177 426.02L554.999 426L570.037 393.773C568 393.401 565.95 393.064 563.888 392.762L562.609 393.979C553.521 402.603 546.117 409.172 540.395 413.688L539.999 414C531.811 420.414 519.58 428.452 503.307 438.112L502.447 438.622L530.202 391.102C528.426 391.14 526.674 391.188 524.945 391.246L523.493 392.663C511.479 404.358 501.473 413.346 493.476 419.626L492.999 420C482.336 428.313 432.999 457 432.999 457L458.999 413C421.999 426 408.999 438 400.999 448C392.999 458 373.393 491.363 394.999 510L328.116 564.825H287.145C271.779 507.747 259.999 405 337.999 391C384.666 327.666 451.999 301.333 539.999 312Z" fill="black" stroke="black" stroke-width="12" stroke-linecap="round" stroke-linejoin="round"/></g>    </g><g id="notion-avatar-accessories">      <!--?xml version="1.0" encoding="UTF-8"?-->    <title>Accessories/ 0</title>    <g id="Accessories/-0" stroke="none" stroke-width="1" fill="none" fill-rule="evenodd"/>    </g><g id="notion-avatar-details">      <!--?xml version="1.0" encoding="UTF-8"?-->    <title>Details/ 0</title>    <g id="Details/-0" stroke="none" stroke-width="1" fill="none" fill-rule="evenodd"/>    </g><g id="notion-avatar-beard">      <!--?xml version="1.0" encoding="UTF-8"?-->    <title>Beard/ 0</title>    <g id="Beard/-0" stroke="none" stroke-width="1" fill="none" fill-rule="evenodd"/>    </g>      </g>      </svg>